<svg xmlns="http://www.w3.org/2000/svg" xmlns:xlink="http://www.w3.org/1999/xlink" width="2000" zoomAndPan="magnify" viewBox="130 130 1240 1240" height="2000" preserveAspectRatio="xMidYMid meet" version="1.0"><defs><clipPath id="4b3970b89d"><path d="M 0.410156 0.410156 L 1204.019531 0.410156 L 1204.019531 1204.019531 L 0.410156 1204.019531 Z M 0.410156 0.410156 " clip-rule="nonzero"/></clipPath><clipPath id="e1fe9c97e3"><path d="M 324.210938 0.410156 L 880.21875 0.410156 C 885.519531 0.410156 890.8125 0.539062 896.105469 0.800781 C 901.398438 1.058594 906.683594 1.449219 911.957031 1.96875 C 917.230469 2.488281 922.488281 3.136719 927.730469 3.914062 C 932.972656 4.691406 938.191406 5.597656 943.390625 6.632812 C 948.585938 7.664062 953.753906 8.828125 958.894531 10.113281 C 964.035156 11.402344 969.140625 12.816406 974.214844 14.351562 C 979.285156 15.890625 984.316406 17.554688 989.304688 19.339844 C 994.292969 21.125 999.234375 23.03125 1004.132812 25.058594 C 1009.027344 27.085938 1013.871094 29.234375 1018.660156 31.5 C 1023.453125 33.765625 1028.183594 36.144531 1032.859375 38.644531 C 1037.53125 41.140625 1042.140625 43.753906 1046.6875 46.476562 C 1051.230469 49.203125 1055.707031 52.035156 1060.113281 54.980469 C 1064.519531 57.925781 1068.851562 60.976562 1073.105469 64.132812 C 1077.363281 67.289062 1081.539062 70.546875 1085.636719 73.910156 C 1089.734375 77.273438 1093.742188 80.730469 1097.671875 84.289062 C 1101.597656 87.847656 1105.433594 91.503906 1109.179688 95.25 C 1112.929688 98.996094 1116.582031 102.832031 1120.140625 106.761719 C 1123.699219 110.6875 1127.160156 114.699219 1130.519531 118.792969 C 1133.882812 122.890625 1137.140625 127.066406 1140.296875 131.324219 C 1143.457031 135.578125 1146.503906 139.910156 1149.449219 144.316406 C 1152.394531 148.722656 1155.226562 153.199219 1157.953125 157.746094 C 1160.675781 162.289062 1163.289062 166.898438 1165.785156 171.574219 C 1168.285156 176.246094 1170.667969 180.976562 1172.933594 185.769531 C 1175.199219 190.558594 1177.34375 195.402344 1179.371094 200.296875 C 1181.398438 205.195312 1183.308594 210.136719 1185.09375 215.125 C 1186.878906 220.117188 1188.539062 225.144531 1190.078125 230.21875 C 1191.617188 235.289062 1193.027344 240.394531 1194.316406 245.535156 C 1195.605469 250.675781 1196.765625 255.84375 1197.796875 261.042969 C 1198.832031 266.238281 1199.738281 271.457031 1200.515625 276.699219 C 1201.292969 281.941406 1201.941406 287.199219 1202.460938 292.472656 C 1202.980469 297.746094 1203.371094 303.03125 1203.628906 308.324219 C 1203.890625 313.617188 1204.019531 318.914062 1204.019531 324.210938 L 1204.019531 880.21875 C 1204.019531 885.519531 1203.890625 890.8125 1203.628906 896.105469 C 1203.371094 901.398438 1202.980469 906.683594 1202.460938 911.957031 C 1201.941406 917.230469 1201.292969 922.488281 1200.515625 927.730469 C 1199.738281 932.972656 1198.832031 938.191406 1197.796875 943.390625 C 1196.765625 948.585938 1195.605469 953.753906 1194.316406 958.894531 C 1193.027344 964.035156 1191.617188 969.140625 1190.078125 974.214844 C 1188.539062 979.285156 1186.878906 984.316406 1185.09375 989.304688 C 1183.308594 994.292969 1181.398438 999.234375 1179.371094 1004.132812 C 1177.34375 1009.027344 1175.199219 1013.871094 1172.933594 1018.660156 C 1170.667969 1023.453125 1168.285156 1028.183594 1165.785156 1032.859375 C 1163.289062 1037.53125 1160.675781 1042.140625 1157.953125 1046.6875 C 1155.226562 1051.230469 1152.394531 1055.707031 1149.449219 1060.113281 C 1146.503906 1064.519531 1143.457031 1068.851562 1140.296875 1073.105469 C 1137.140625 1077.363281 1133.882812 1081.539062 1130.519531 1085.636719 C 1127.160156 1089.734375 1123.699219 1093.742188 1120.140625 1097.671875 C 1116.582031 1101.597656 1112.929688 1105.433594 1109.179688 1109.179688 C 1105.433594 1112.929688 1101.597656 1116.582031 1097.671875 1120.140625 C 1093.742188 1123.699219 1089.734375 1127.160156 1085.636719 1130.519531 C 1081.539062 1133.882812 1077.363281 1137.140625 1073.105469 1140.296875 C 1068.851562 1143.457031 1064.519531 1146.503906 1060.113281 1149.449219 C 1055.707031 1152.394531 1051.230469 1155.226562 1046.6875 1157.953125 C 1042.140625 1160.675781 1037.53125 1163.289062 1032.859375 1165.785156 C 1028.183594 1168.285156 1023.453125 1170.667969 1018.660156 1172.933594 C 1013.871094 1175.199219 1009.027344 1177.34375 1004.132812 1179.371094 C 999.234375 1181.398438 994.292969 1183.308594 989.304688 1185.09375 C 984.316406 1186.878906 979.285156 1188.539062 974.214844 1190.078125 C 969.140625 1191.617188 964.035156 1193.027344 958.894531 1194.316406 C 953.753906 1195.605469 948.585938 1196.765625 943.390625 1197.796875 C 938.191406 1198.832031 932.972656 1199.738281 927.730469 1200.515625 C 922.488281 1201.292969 917.230469 1201.941406 911.957031 1202.460938 C 906.683594 1202.980469 901.398438 1203.371094 896.105469 1203.628906 C 890.8125 1203.890625 885.519531 1204.019531 880.21875 1204.019531 L 324.210938 1204.019531 C 318.914062 1204.019531 313.617188 1203.890625 308.324219 1203.628906 C 303.03125 1203.371094 297.746094 1202.980469 292.472656 1202.460938 C 287.199219 1201.941406 281.941406 1201.292969 276.699219 1200.515625 C 271.457031 1199.738281 266.238281 1198.832031 261.042969 1197.796875 C 255.84375 1196.765625 250.675781 1195.605469 245.535156 1194.316406 C 240.394531 1193.027344 235.289062 1191.617188 230.21875 1190.078125 C 225.144531 1188.539062 220.117188 1186.878906 215.125 1185.09375 C 210.136719 1183.308594 205.195312 1181.398438 200.296875 1179.371094 C 195.402344 1177.34375 190.558594 1175.199219 185.769531 1172.933594 C 180.976562 1170.667969 176.246094 1168.285156 171.574219 1165.785156 C 166.898438 1163.289062 162.289062 1160.675781 157.746094 1157.953125 C 153.199219 1155.226562 148.722656 1152.394531 144.316406 1149.449219 C 139.910156 1146.503906 135.578125 1143.457031 131.324219 1140.296875 C 127.066406 1137.140625 122.890625 1133.882812 118.792969 1130.519531 C 114.699219 1127.160156 110.6875 1123.699219 106.761719 1120.140625 C 102.832031 1116.582031 98.996094 1112.929688 95.25 1109.179688 C 91.503906 1105.433594 87.847656 1101.597656 84.289062 1097.671875 C 80.730469 1093.742188 77.273438 1089.734375 73.910156 1085.636719 C 70.546875 1081.539062 67.289062 1077.363281 64.132812 1073.105469 C 60.976562 1068.851562 57.925781 1064.519531 54.980469 1060.113281 C 52.035156 1055.707031 49.203125 1051.230469 46.476562 1046.6875 C 43.753906 1042.140625 41.140625 1037.53125 38.644531 1032.859375 C 36.144531 1028.183594 33.765625 1023.453125 31.5 1018.660156 C 29.234375 1013.871094 27.085938 1009.027344 25.058594 1004.132812 C 23.03125 999.234375 21.125 994.292969 19.339844 989.304688 C 17.554688 984.316406 15.890625 979.285156 14.351562 974.214844 C 12.816406 969.140625 11.402344 964.035156 10.113281 958.894531 C 8.828125 953.753906 7.664062 948.585938 6.632812 943.390625 C 5.597656 938.191406 4.691406 932.972656 3.914062 927.730469 C 3.136719 922.488281 2.488281 917.230469 1.96875 911.957031 C 1.449219 906.683594 1.058594 901.398438 0.800781 896.105469 C 0.539062 890.8125 0.410156 885.519531 0.410156 880.21875 L 0.410156 324.210938 C 0.410156 318.914062 0.539062 313.617188 0.800781 308.324219 C 1.058594 303.03125 1.449219 297.746094 1.96875 292.472656 C 2.488281 287.199219 3.136719 281.941406 3.914062 276.699219 C 4.691406 271.457031 5.597656 266.238281 6.632812 261.042969 C 7.664062 255.84375 8.828125 250.675781 10.113281 245.535156 C 11.402344 240.394531 12.816406 235.289062 14.351562 230.21875 C 15.890625 225.144531 17.554688 220.117188 19.339844 215.125 C 21.125 210.136719 23.03125 205.195312 25.058594 200.296875 C 27.085938 195.402344 29.234375 190.558594 31.5 185.769531 C 33.765625 180.976562 36.144531 176.246094 38.644531 171.574219 C 41.140625 166.898438 43.753906 162.289062 46.476562 157.746094 C 49.203125 153.199219 52.035156 148.722656 54.980469 144.316406 C 57.925781 139.910156 60.976562 135.578125 64.132812 131.324219 C 67.289062 127.066406 70.546875 122.890625 73.910156 118.792969 C 77.273438 114.699219 80.730469 110.6875 84.289062 106.761719 C 87.847656 102.832031 91.503906 98.996094 95.25 95.25 C 98.996094 91.503906 102.832031 87.847656 106.761719 84.289062 C 110.6875 80.730469 114.699219 77.273438 118.792969 73.910156 C 122.890625 70.546875 127.066406 67.289062 131.324219 64.132812 C 135.578125 60.976562 139.910156 57.925781 144.316406 54.980469 C 148.722656 52.035156 153.199219 49.203125 157.746094 46.476562 C 162.289062 43.753906 166.898438 41.140625 171.574219 38.644531 C 176.246094 36.144531 180.976562 33.765625 185.769531 31.5 C 190.558594 29.234375 195.402344 27.085938 200.296875 25.058594 C 205.195312 23.03125 210.136719 21.125 215.125 19.339844 C 220.117188 17.554688 225.144531 15.890625 230.21875 14.351562 C 235.289062 12.816406 240.394531 11.402344 245.535156 10.113281 C 250.675781 8.828125 255.84375 7.664062 261.042969 6.632812 C 266.238281 5.597656 271.457031 4.691406 276.699219 3.914062 C 281.941406 3.136719 287.199219 2.488281 292.472656 1.96875 C 297.746094 1.449219 303.03125 1.058594 308.324219 0.800781 C 313.617188 0.539062 318.914062 0.410156 324.210938 0.410156 Z M 324.210938 0.410156 " clip-rule="nonzero"/></clipPath><linearGradient x1="21.351886" gradientTransform="matrix(0, -5.100043, 5.100043, 0, 0.410148, 1204.020344)" y1="-15.462286" x2="214.648919" gradientUnits="userSpaceOnUse" y2="251.461697" id="86af03bb7d"><stop stop-opacity="1" stop-color="rgb(49.612427%, 66.285706%, 95.707703%)" offset="0"/><stop stop-opacity="1" stop-color="rgb(49.57428%, 66.00647%, 95.657349%)" offset="0.00390625"/><stop stop-opacity="1" stop-color="rgb(49.537659%, 65.72876%, 95.608521%)" offset="0.0078125"/><stop stop-opacity="1" stop-color="rgb(49.499512%, 65.449524%, 95.559692%)" offset="0.0117188"/><stop stop-opacity="1" stop-color="rgb(49.461365%, 65.171814%, 95.510864%)" offset="0.015625"/><stop stop-opacity="1" stop-color="rgb(49.423218%, 64.892578%, 95.46051%)" offset="0.0195312"/><stop stop-opacity="1" stop-color="rgb(49.385071%, 64.614868%, 95.411682%)" offset="0.0234375"/><stop stop-opacity="1" stop-color="rgb(49.346924%, 64.335632%, 95.362854%)" offset="0.0273438"/><stop stop-opacity="1" stop-color="rgb(49.310303%, 64.057922%, 95.314026%)" offset="0.03125"/><stop stop-opacity="1" stop-color="rgb(49.272156%, 63.778687%, 95.263672%)" offset="0.0351562"/><stop stop-opacity="1" stop-color="rgb(49.234009%, 63.500977%, 95.214844%)" offset="0.0390625"/><stop stop-opacity="1" stop-color="rgb(49.195862%, 63.221741%, 95.166016%)" offset="0.0429688"/><stop stop-opacity="1" stop-color="rgb(49.157715%, 62.944031%, 95.117188%)" offset="0.046875"/><stop stop-opacity="1" stop-color="rgb(49.119568%, 62.664795%, 95.066833%)" offset="0.0507813"/><stop stop-opacity="1" stop-color="rgb(49.082947%, 62.387085%, 95.018005%)" offset="0.0546875"/><stop stop-opacity="1" stop-color="rgb(49.0448%, 62.107849%, 94.967651%)" offset="0.0585938"/><stop stop-opacity="1" stop-color="rgb(49.006653%, 61.830139%, 94.918823%)" offset="0.0625"/><stop stop-opacity="1" stop-color="rgb(48.968506%, 61.550903%, 94.869995%)" offset="0.0664062"/><stop stop-opacity="1" stop-color="rgb(48.930359%, 61.273193%, 94.821167%)" offset="0.0703125"/><stop stop-opacity="1" stop-color="rgb(48.892212%, 60.993958%, 94.770813%)" offset="0.0742187"/><stop stop-opacity="1" stop-color="rgb(48.855591%, 60.716248%, 94.721985%)" offset="0.078125"/><stop stop-opacity="1" stop-color="rgb(48.817444%, 60.437012%, 94.673157%)" offset="0.0820312"/><stop stop-opacity="1" stop-color="rgb(48.779297%, 60.159302%, 94.624329%)" offset="0.0859375"/><stop stop-opacity="1" stop-color="rgb(48.74115%, 59.880066%, 94.573975%)" offset="0.0898437"/><stop stop-opacity="1" stop-color="rgb(48.703003%, 59.602356%, 94.525146%)" offset="0.09375"/><stop stop-opacity="1" stop-color="rgb(48.664856%, 59.32312%, 94.476318%)" offset="0.0976563"/><stop stop-opacity="1" stop-color="rgb(48.626709%, 59.04541%, 94.42749%)" offset="0.101562"/><stop stop-opacity="1" stop-color="rgb(48.588562%, 58.7677%, 94.377136%)" offset="0.105469"/><stop stop-opacity="1" stop-color="rgb(48.551941%, 58.48999%, 94.328308%)" offset="0.109375"/><stop stop-opacity="1" stop-color="rgb(48.513794%, 58.210754%, 94.277954%)" offset="0.113281"/><stop stop-opacity="1" stop-color="rgb(48.475647%, 57.933044%, 94.229126%)" offset="0.117187"/><stop stop-opacity="1" stop-color="rgb(48.4375%, 57.653809%, 94.180298%)" offset="0.121094"/><stop stop-opacity="1" stop-color="rgb(48.399353%, 57.376099%, 94.13147%)" offset="0.125"/><stop stop-opacity="1" stop-color="rgb(48.361206%, 57.096863%, 94.081116%)" offset="0.128906"/><stop stop-opacity="1" stop-color="rgb(48.324585%, 56.819153%, 94.032288%)" offset="0.132812"/><stop stop-opacity="1" stop-color="rgb(48.286438%, 56.539917%, 93.983459%)" offset="0.136719"/><stop stop-opacity="1" stop-color="rgb(48.248291%, 56.262207%, 93.934631%)" offset="0.140625"/><stop stop-opacity="1" stop-color="rgb(48.210144%, 55.982971%, 93.884277%)" offset="0.144531"/><stop stop-opacity="1" stop-color="rgb(48.171997%, 55.705261%, 93.835449%)" offset="0.148437"/><stop stop-opacity="1" stop-color="rgb(48.13385%, 55.426025%, 93.786621%)" offset="0.152344"/><stop stop-opacity="1" stop-color="rgb(48.097229%, 55.148315%, 93.737793%)" offset="0.15625"/><stop stop-opacity="1" stop-color="rgb(48.059082%, 54.86908%, 93.687439%)" offset="0.160156"/><stop stop-opacity="1" stop-color="rgb(48.020935%, 54.59137%, 93.638611%)" offset="0.164062"/><stop stop-opacity="1" stop-color="rgb(47.982788%, 54.312134%, 93.588257%)" offset="0.167969"/><stop stop-opacity="1" stop-color="rgb(47.944641%, 54.034424%, 93.539429%)" offset="0.171875"/><stop stop-opacity="1" stop-color="rgb(47.906494%, 53.755188%, 93.490601%)" offset="0.175781"/><stop stop-opacity="1" stop-color="rgb(47.869873%, 53.477478%, 93.441772%)" offset="0.179687"/><stop stop-opacity="1" stop-color="rgb(47.831726%, 53.198242%, 93.391418%)" offset="0.183594"/><stop stop-opacity="1" stop-color="rgb(47.793579%, 52.920532%, 93.34259%)" offset="0.1875"/><stop stop-opacity="1" stop-color="rgb(47.755432%, 52.641296%, 93.293762%)" offset="0.191406"/><stop stop-opacity="1" stop-color="rgb(47.717285%, 52.363586%, 93.244934%)" offset="0.195312"/><stop stop-opacity="1" stop-color="rgb(47.679138%, 52.084351%, 93.19458%)" offset="0.199219"/><stop stop-opacity="1" stop-color="rgb(47.640991%, 51.806641%, 93.145752%)" offset="0.203125"/><stop stop-opacity="1" stop-color="rgb(47.602844%, 51.527405%, 93.096924%)" offset="0.207031"/><stop stop-opacity="1" stop-color="rgb(47.566223%, 51.249695%, 93.048096%)" offset="0.210938"/><stop stop-opacity="1" stop-color="rgb(47.528076%, 50.970459%, 92.997742%)" offset="0.214844"/><stop stop-opacity="1" stop-color="rgb(47.489929%, 50.692749%, 92.948914%)" offset="0.21875"/><stop stop-opacity="1" stop-color="rgb(47.451782%, 50.413513%, 92.900085%)" offset="0.222656"/><stop stop-opacity="1" stop-color="rgb(47.413635%, 50.135803%, 92.851257%)" offset="0.226562"/><stop stop-opacity="1" stop-color="rgb(47.375488%, 49.856567%, 92.800903%)" offset="0.230469"/><stop stop-opacity="1" stop-color="rgb(47.338867%, 49.578857%, 92.752075%)" offset="0.234375"/><stop stop-opacity="1" stop-color="rgb(47.30072%, 49.299622%, 92.701721%)" offset="0.238281"/><stop stop-opacity="1" stop-color="rgb(47.262573%, 49.021912%, 92.652893%)" offset="0.242187"/><stop stop-opacity="1" stop-color="rgb(47.224426%, 48.744202%, 92.604065%)" offset="0.246094"/><stop stop-opacity="1" stop-color="rgb(47.186279%, 48.466492%, 92.555237%)" offset="0.25"/><stop stop-opacity="1" stop-color="rgb(47.148132%, 48.187256%, 92.504883%)" offset="0.253906"/><stop stop-opacity="1" stop-color="rgb(47.111511%, 47.909546%, 92.456055%)" offset="0.257812"/><stop stop-opacity="1" stop-color="rgb(47.073364%, 47.63031%, 92.407227%)" offset="0.261719"/><stop stop-opacity="1" stop-color="rgb(47.035217%, 47.3526%, 92.358398%)" offset="0.265625"/><stop stop-opacity="1" stop-color="rgb(46.99707%, 47.073364%, 92.308044%)" offset="0.269531"/><stop stop-opacity="1" stop-color="rgb(46.958923%, 46.795654%, 92.259216%)" offset="0.273437"/><stop stop-opacity="1" stop-color="rgb(46.920776%, 46.516418%, 92.210388%)" offset="0.277344"/><stop stop-opacity="1" stop-color="rgb(46.884155%, 46.238708%, 92.16156%)" offset="0.28125"/><stop stop-opacity="1" stop-color="rgb(46.846008%, 45.959473%, 92.111206%)" offset="0.285156"/><stop stop-opacity="1" stop-color="rgb(46.807861%, 45.681763%, 92.062378%)" offset="0.289062"/><stop stop-opacity="1" stop-color="rgb(46.769714%, 45.402527%, 92.012024%)" offset="0.292969"/><stop stop-opacity="1" stop-color="rgb(46.731567%, 45.124817%, 91.963196%)" offset="0.296875"/><stop stop-opacity="1" stop-color="rgb(46.69342%, 44.845581%, 91.914368%)" offset="0.300781"/><stop stop-opacity="1" stop-color="rgb(46.655273%, 44.567871%, 91.86554%)" offset="0.304687"/><stop stop-opacity="1" stop-color="rgb(46.617126%, 44.288635%, 91.815186%)" offset="0.308594"/><stop stop-opacity="1" stop-color="rgb(46.580505%, 44.010925%, 91.766357%)" offset="0.3125"/><stop stop-opacity="1" stop-color="rgb(46.542358%, 43.731689%, 91.717529%)" offset="0.316406"/><stop stop-opacity="1" stop-color="rgb(46.504211%, 43.453979%, 91.668701%)" offset="0.320312"/><stop stop-opacity="1" stop-color="rgb(46.466064%, 43.174744%, 91.618347%)" offset="0.324219"/><stop stop-opacity="1" stop-color="rgb(46.427917%, 42.897034%, 91.569519%)" offset="0.328125"/><stop stop-opacity="1" stop-color="rgb(46.389771%, 42.617798%, 91.520691%)" offset="0.332031"/><stop stop-opacity="1" stop-color="rgb(46.353149%, 42.340088%, 91.471863%)" offset="0.335937"/><stop stop-opacity="1" stop-color="rgb(46.315002%, 42.060852%, 91.421509%)" offset="0.339844"/><stop stop-opacity="1" stop-color="rgb(46.276855%, 41.783142%, 91.372681%)" offset="0.34375"/><stop stop-opacity="1" stop-color="rgb(46.238708%, 41.503906%, 91.322327%)" offset="0.347656"/><stop stop-opacity="1" stop-color="rgb(46.200562%, 41.226196%, 91.273499%)" offset="0.351562"/><stop stop-opacity="1" stop-color="rgb(46.162415%, 40.94696%, 91.22467%)" offset="0.355469"/><stop stop-opacity="1" stop-color="rgb(46.125793%, 40.66925%, 91.175842%)" offset="0.359375"/><stop stop-opacity="1" stop-color="rgb(46.087646%, 40.390015%, 91.125488%)" offset="0.363281"/><stop stop-opacity="1" stop-color="rgb(46.0495%, 40.112305%, 91.07666%)" offset="0.367187"/><stop stop-opacity="1" stop-color="rgb(46.011353%, 39.833069%, 91.027832%)" offset="0.371094"/><stop stop-opacity="1" stop-color="rgb(45.973206%, 39.555359%, 90.979004%)" offset="0.375"/><stop stop-opacity="1" stop-color="rgb(45.935059%, 39.277649%, 90.92865%)" offset="0.378906"/><stop stop-opacity="1" stop-color="rgb(45.898438%, 38.999939%, 90.879822%)" offset="0.382812"/><stop stop-opacity="1" stop-color="rgb(45.860291%, 38.720703%, 90.830994%)" offset="0.386719"/><stop stop-opacity="1" stop-color="rgb(45.822144%, 38.442993%, 90.782166%)" offset="0.390625"/><stop stop-opacity="1" stop-color="rgb(45.783997%, 38.163757%, 90.731812%)" offset="0.394531"/><stop stop-opacity="1" stop-color="rgb(45.74585%, 37.886047%, 90.682983%)" offset="0.398437"/><stop stop-opacity="1" stop-color="rgb(45.707703%, 37.606812%, 90.632629%)" offset="0.402344"/><stop stop-opacity="1" stop-color="rgb(45.669556%, 37.329102%, 90.583801%)" offset="0.40625"/><stop stop-opacity="1" stop-color="rgb(45.631409%, 37.049866%, 90.534973%)" offset="0.410156"/><stop stop-opacity="1" stop-color="rgb(45.594788%, 36.772156%, 90.486145%)" offset="0.414062"/><stop stop-opacity="1" stop-color="rgb(45.556641%, 36.49292%, 90.435791%)" offset="0.417969"/><stop stop-opacity="1" stop-color="rgb(45.518494%, 36.21521%, 90.386963%)" offset="0.421875"/><stop stop-opacity="1" stop-color="rgb(45.480347%, 35.935974%, 90.338135%)" offset="0.425781"/><stop stop-opacity="1" stop-color="rgb(45.4422%, 35.658264%, 90.289307%)" offset="0.429687"/><stop stop-opacity="1" stop-color="rgb(45.404053%, 35.379028%, 90.238953%)" offset="0.433594"/><stop stop-opacity="1" stop-color="rgb(45.367432%, 35.101318%, 90.190125%)" offset="0.4375"/><stop stop-opacity="1" stop-color="rgb(45.329285%, 34.822083%, 90.141296%)" offset="0.441406"/><stop stop-opacity="1" stop-color="rgb(45.291138%, 34.544373%, 90.092468%)" offset="0.445312"/><stop stop-opacity="1" stop-color="rgb(45.252991%, 34.265137%, 90.042114%)" offset="0.449219"/><stop stop-opacity="1" stop-color="rgb(45.214844%, 33.987427%, 89.993286%)" offset="0.453125"/><stop stop-opacity="1" stop-color="rgb(45.176697%, 33.708191%, 89.942932%)" offset="0.457031"/><stop stop-opacity="1" stop-color="rgb(45.140076%, 33.430481%, 89.894104%)" offset="0.460937"/><stop stop-opacity="1" stop-color="rgb(45.101929%, 33.151245%, 89.845276%)" offset="0.464844"/><stop stop-opacity="1" stop-color="rgb(45.063782%, 32.873535%, 89.796448%)" offset="0.46875"/><stop stop-opacity="1" stop-color="rgb(45.025635%, 32.594299%, 89.746094%)" offset="0.472656"/><stop stop-opacity="1" stop-color="rgb(44.987488%, 32.316589%, 89.697266%)" offset="0.476562"/><stop stop-opacity="1" stop-color="rgb(44.949341%, 32.037354%, 89.648438%)" offset="0.480469"/><stop stop-opacity="1" stop-color="rgb(44.91272%, 31.759644%, 89.599609%)" offset="0.484375"/><stop stop-opacity="1" stop-color="rgb(44.874573%, 31.480408%, 89.549255%)" offset="0.488281"/><stop stop-opacity="1" stop-color="rgb(44.836426%, 31.202698%, 89.500427%)" offset="0.492187"/><stop stop-opacity="1" stop-color="rgb(44.798279%, 30.923462%, 89.451599%)" offset="0.496094"/><stop stop-opacity="1" stop-color="rgb(44.760132%, 30.645752%, 89.402771%)" offset="0.5"/><stop stop-opacity="1" stop-color="rgb(44.721985%, 30.366516%, 89.352417%)" offset="0.503906"/><stop stop-opacity="1" stop-color="rgb(44.683838%, 30.088806%, 89.303589%)" offset="0.507812"/><stop stop-opacity="1" stop-color="rgb(44.645691%, 29.811096%, 89.253235%)" offset="0.511719"/><stop stop-opacity="1" stop-color="rgb(44.60907%, 29.533386%, 89.204407%)" offset="0.515625"/><stop stop-opacity="1" stop-color="rgb(44.570923%, 29.25415%, 89.155579%)" offset="0.519531"/><stop stop-opacity="1" stop-color="rgb(44.532776%, 28.97644%, 89.10675%)" offset="0.523438"/><stop stop-opacity="1" stop-color="rgb(44.494629%, 28.697205%, 89.056396%)" offset="0.527344"/><stop stop-opacity="1" stop-color="rgb(44.456482%, 28.419495%, 89.007568%)" offset="0.53125"/><stop stop-opacity="1" stop-color="rgb(44.418335%, 28.140259%, 88.95874%)" offset="0.535156"/><stop stop-opacity="1" stop-color="rgb(44.381714%, 27.862549%, 88.909912%)" offset="0.539062"/><stop stop-opacity="1" stop-color="rgb(44.343567%, 27.583313%, 88.859558%)" offset="0.542969"/><stop stop-opacity="1" stop-color="rgb(44.30542%, 27.305603%, 88.81073%)" offset="0.546875"/><stop stop-opacity="1" stop-color="rgb(44.267273%, 27.026367%, 88.761902%)" offset="0.550781"/><stop stop-opacity="1" stop-color="rgb(44.229126%, 26.748657%, 88.713074%)" offset="0.554688"/><stop stop-opacity="1" stop-color="rgb(44.190979%, 26.469421%, 88.66272%)" offset="0.558594"/><stop stop-opacity="1" stop-color="rgb(44.154358%, 26.191711%, 88.613892%)" offset="0.5625"/><stop stop-opacity="1" stop-color="rgb(44.116211%, 25.912476%, 88.563538%)" offset="0.566406"/><stop stop-opacity="1" stop-color="rgb(44.078064%, 25.634766%, 88.514709%)" offset="0.570312"/><stop stop-opacity="1" stop-color="rgb(44.039917%, 25.35553%, 88.465881%)" offset="0.574219"/><stop stop-opacity="1" stop-color="rgb(44.00177%, 25.07782%, 88.417053%)" offset="0.578125"/><stop stop-opacity="1" stop-color="rgb(43.963623%, 24.798584%, 88.366699%)" offset="0.582031"/><stop stop-opacity="1" stop-color="rgb(43.927002%, 24.520874%, 88.317871%)" offset="0.585937"/><stop stop-opacity="1" stop-color="rgb(43.888855%, 24.241638%, 88.269043%)" offset="0.589844"/><stop stop-opacity="1" stop-color="rgb(43.850708%, 23.963928%, 88.220215%)" offset="0.59375"/><stop stop-opacity="1" stop-color="rgb(43.812561%, 23.684692%, 88.169861%)" offset="0.597656"/><stop stop-opacity="1" stop-color="rgb(43.774414%, 23.406982%, 88.121033%)" offset="0.601562"/><stop stop-opacity="1" stop-color="rgb(43.736267%, 23.127747%, 88.072205%)" offset="0.605469"/><stop stop-opacity="1" stop-color="rgb(43.69812%, 22.850037%, 88.023376%)" offset="0.609375"/><stop stop-opacity="1" stop-color="rgb(43.659973%, 22.570801%, 87.973022%)" offset="0.613281"/><stop stop-opacity="1" stop-color="rgb(43.623352%, 22.293091%, 87.924194%)" offset="0.617187"/><stop stop-opacity="1" stop-color="rgb(43.585205%, 22.013855%, 87.87384%)" offset="0.621094"/><stop stop-opacity="1" stop-color="rgb(43.547058%, 21.736145%, 87.825012%)" offset="0.625"/><stop stop-opacity="1" stop-color="rgb(43.508911%, 21.456909%, 87.776184%)" offset="0.628906"/><stop stop-opacity="1" stop-color="rgb(43.470764%, 21.179199%, 87.727356%)" offset="0.632812"/><stop stop-opacity="1" stop-color="rgb(43.432617%, 20.899963%, 87.677002%)" offset="0.636719"/><stop stop-opacity="1" stop-color="rgb(43.395996%, 20.622253%, 87.628174%)" offset="0.640625"/><stop stop-opacity="1" stop-color="rgb(43.357849%, 20.343018%, 87.579346%)" offset="0.644531"/><stop stop-opacity="1" stop-color="rgb(43.319702%, 20.065308%, 87.530518%)" offset="0.648437"/><stop stop-opacity="1" stop-color="rgb(43.281555%, 19.787598%, 87.480164%)" offset="0.652344"/><stop stop-opacity="1" stop-color="rgb(43.243408%, 19.509888%, 87.431335%)" offset="0.65625"/><stop stop-opacity="1" stop-color="rgb(43.205261%, 19.230652%, 87.382507%)" offset="0.660156"/><stop stop-opacity="1" stop-color="rgb(43.16864%, 18.952942%, 87.333679%)" offset="0.664062"/><stop stop-opacity="1" stop-color="rgb(43.130493%, 18.673706%, 87.283325%)" offset="0.667969"/><stop stop-opacity="1" stop-color="rgb(43.092346%, 18.395996%, 87.234497%)" offset="0.671875"/><stop stop-opacity="1" stop-color="rgb(43.054199%, 18.11676%, 87.185669%)" offset="0.675781"/><stop stop-opacity="1" stop-color="rgb(43.016052%, 17.83905%, 87.136841%)" offset="0.679687"/><stop stop-opacity="1" stop-color="rgb(42.977905%, 17.559814%, 87.086487%)" offset="0.683594"/><stop stop-opacity="1" stop-color="rgb(42.941284%, 17.282104%, 87.037659%)" offset="0.6875"/><stop stop-opacity="1" stop-color="rgb(42.903137%, 17.002869%, 86.987305%)" offset="0.691406"/><stop stop-opacity="1" stop-color="rgb(42.86499%, 16.725159%, 86.938477%)" offset="0.695312"/><stop stop-opacity="1" stop-color="rgb(42.826843%, 16.445923%, 86.889648%)" offset="0.699219"/><stop stop-opacity="1" stop-color="rgb(42.788696%, 16.168213%, 86.84082%)" offset="0.703125"/><stop stop-opacity="1" stop-color="rgb(42.750549%, 15.888977%, 86.790466%)" offset="0.707031"/><stop stop-opacity="1" stop-color="rgb(42.712402%, 15.611267%, 86.741638%)" offset="0.710938"/><stop stop-opacity="1" stop-color="rgb(42.674255%, 15.332031%, 86.69281%)" offset="0.714844"/><stop stop-opacity="1" stop-color="rgb(42.637634%, 15.054321%, 86.643982%)" offset="0.71875"/><stop stop-opacity="1" stop-color="rgb(42.599487%, 14.775085%, 86.593628%)" offset="0.722656"/><stop stop-opacity="1" stop-color="rgb(42.56134%, 14.497375%, 86.5448%)" offset="0.726562"/><stop stop-opacity="1" stop-color="rgb(42.523193%, 14.21814%, 86.495972%)" offset="0.730469"/><stop stop-opacity="1" stop-color="rgb(42.485046%, 13.94043%, 86.447144%)" offset="0.734375"/><stop stop-opacity="1" stop-color="rgb(42.446899%, 13.661194%, 86.39679%)" offset="0.738281"/><stop stop-opacity="1" stop-color="rgb(42.410278%, 13.383484%, 86.347961%)" offset="0.742188"/><stop stop-opacity="1" stop-color="rgb(42.379761%, 13.160706%, 86.308289%)" offset="0.746094"/><stop stop-opacity="1" stop-color="rgb(42.349243%, 12.939453%, 86.268616%)" offset="0.75"/><stop stop-opacity="1" stop-color="rgb(42.349243%, 12.939453%, 86.268616%)" offset="1"/></linearGradient><clipPath id="7a61835a31"><path d="M 209.273438 245.574219 L 407 245.574219 L 407 963.109375 L 209.273438 963.109375 Z M 209.273438 245.574219 " clip-rule="nonzero"/></clipPath><clipPath id="c140e23328"><path d="M 406 245.574219 L 603 245.574219 L 603 963.109375 L 406 963.109375 Z M 406 245.574219 " clip-rule="nonzero"/></clipPath><clipPath id="dd8ab897dc"><path d="M 602 245.574219 L 800 245.574219 L 800 963.109375 L 602 963.109375 Z M 602 245.574219 " clip-rule="nonzero"/></clipPath><clipPath id="2c6a8e119a"><path d="M 799 245.574219 L 996 245.574219 L 996 963.109375 L 799 963.109375 Z M 799 245.574219 " clip-rule="nonzero"/></clipPath><clipPath id="a5b769d29e"><rect x="0" width="1212" y="0" height="1212"/></clipPath></defs><g transform="matrix(1, 0, 0, 1, 147, 147)"><g clip-path="url(#a5b769d29e)"><g clip-path="url(#4b3970b89d)"><g clip-path="url(#e1fe9c97e3)"><path fill="url(#86af03bb7d)" d="M 0.410156 1204.019531 L 1204.019531 1204.019531 L 1204.019531 0.410156 L 0.410156 0.410156 Z M 0.410156 1204.019531 " fill-rule="nonzero"/></g></g><g clip-path="url(#7a61835a31)"><path fill="#ffffff" d="M 210.722656 963.109375 L 406.535156 723.707031 L 406.535156 245.574219 L 209.835938 486.089844 Z M 210.722656 963.109375 " fill-opacity="1" fill-rule="nonzero"/></g><g clip-path="url(#c140e23328)"><path fill="#c0bff2" d="M 406.535156 245.574219 L 602.730469 484.976562 L 602.730469 963.109375 L 406.535156 722.59375 Z M 406.535156 245.574219 " fill-opacity="1" fill-rule="nonzero"/></g><g clip-path="url(#dd8ab897dc)"><path fill="#dbd5f4" d="M 603.621094 963.109375 L 799.429688 723.707031 L 799.429688 245.574219 L 602.730469 486.089844 Z M 603.621094 963.109375 " fill-opacity="1" fill-rule="nonzero"/></g><g clip-path="url(#2c6a8e119a)"><path fill="#a287ec" d="M 799.429688 245.574219 L 995.683594 484.976562 L 995.683594 963.109375 L 799.429688 722.59375 Z M 799.429688 245.574219 " fill-opacity="1" fill-rule="nonzero"/></g></g></g></svg>